<svg viewBox="0 0 1180 740" role="img" aria-label="Proposed Raspberry Pi, DRV8825, stepper, servo, camera and external power wiring" xmlns="http://www.w3.org/2000/svg"><style>text{font-family:Arial,sans-serif;fill:#c2cbd3}.component rect{fill:#18232e;stroke:#344655}.component .part-accent{fill:#b8ef76;stroke:none}.part-tag{font-size:11px;fill:#9daab5}.part-name{font-size:19px;font-weight:bold}.part-sub{font-size:11px;fill:#a2b1bd}.wire-label{font-size:11px}.schematic-caption{font-size:17px;font-weight:bold}.signal{stroke:#b8ef76}.power{stroke:#efb96c}.motor{stroke:#8fbbed}.ground{stroke:#708290}.pending{stroke:#d2a2d2;stroke-dasharray:5 5}</style><defs><pattern id="dots" width="20" height="20" patternUnits="userSpaceOnUse"><circle cx="1" cy="1" r=".75" fill="#273442"/></pattern></defs><rect width="1180" height="740" fill="url(#dots)"/>
 <g fill="none" stroke-width="2"><path class="wire signal" d="M515 230H650M515 260H650M515 290H650"/><path class="wire motor" d="M865 230H960M865 260H960"/><path class="wire signal" d="M515 370H565V440H650"/><path class="wire pending" d="M225 260H300"/><path class="wire power" d="M730 550V525M810 550H905V350H755V320M400 550V420"/><path class="wire ground" d="M330 420V705H1100V320M680 525V705M680 320V355H600V705"/></g>
 <g class="wire-label"><text x="548" y="219">STEP</text><text x="548" y="250">DIR</text><text x="548" y="282">ENABLE</text><text x="884" y="219">COIL A</text><text x="884" y="282">COIL B</text><text x="574" y="430">PWM</text><text x="238" y="246">TBD</text><text x="920" y="352">VMOT</text><text x="746" y="544">5 V</text><text x="880" y="698">COMMON GROUND</text></g>
 <g class="component" data-part="pi" tabindex="0" role="button" aria-label="Inspect Raspberry Pi 4B"><rect x="300" y="185" width="215" height="235" rx="8"/><rect class="part-accent" x="300" y="185" width="3" height="235" rx="1"/><text class="part-tag" x="320" y="214">COMPUTE</text><text class="part-name" x="320" y="247">Raspberry Pi 4B</text><text class="part-sub" x="320" y="271">4 GB · 3.3 V GPIO</text><g fill="#84919d"><circle cx="325" cy="320" r="3"/><circle cx="342" cy="320" r="3"/><circle cx="359" cy="320" r="3"/><circle cx="376" cy="320" r="3"/><circle cx="393" cy="320" r="3"/><circle cx="410" cy="320" r="3"/><circle cx="427" cy="320" r="3"/><circle cx="444" cy="320" r="3"/><circle cx="461" cy="320" r="3"/><circle cx="478" cy="320" r="3"/><circle cx="325" cy="338" r="3"/><circle cx="342" cy="338" r="3"/><circle cx="359" cy="338" r="3"/><circle cx="376" cy="338" r="3"/><circle cx="393" cy="338" r="3"/><circle cx="410" cy="338" r="3"/><circle cx="427" cy="338" r="3"/><circle cx="444" cy="338" r="3"/><circle cx="461" cy="338" r="3"/><circle cx="478" cy="338" r="3"/></g><text class="part-sub" x="320" y="389">40-PIN HEADER · BCM NUMBERING</text></g><g class="component selected" data-part="driver" tabindex="0" role="button" aria-label="Inspect DRV8825 carrier"><rect x="650" y="165" width="215" height="155" rx="8"/><rect class="part-accent" x="650" y="165" width="3" height="155" rx="1"/><text class="part-tag" x="670" y="194">AZIMUTH DRIVER</text><text class="part-name" x="670" y="227">DRV8825 carrier</text><text class="part-sub" x="670" y="251">STEP / DIR · current limited</text></g><g class="component" data-part="stepper" tabindex="0" role="button" aria-label="Inspect FITO278 stepper"><rect x="960" y="165" width="190" height="155" rx="8"/><rect class="part-accent" x="960" y="165" width="3" height="155" rx="1"/><text class="part-tag" x="980" y="194">AZIMUTH AXIS</text><text class="part-name" x="980" y="227">FITO278 stepper</text><text class="part-sub" x="980" y="251">Bipolar coils A / B</text></g><g class="component" data-part="servo" tabindex="0" role="button" aria-label="Inspect MG90S servo"><rect x="650" y="390" width="215" height="135" rx="8"/><rect class="part-accent" x="650" y="390" width="3" height="135" rx="1"/><text class="part-tag" x="670" y="419">PITCH AXIS</text><text class="part-name" x="670" y="452">MG90S servo</text><text class="part-sub" x="670" y="476">PWM · external regulated rail</text></g><g class="component" data-part="camera" tabindex="0" role="button" aria-label="Inspect Arducam Mini"><rect x="25" y="195" width="200" height="150" rx="8"/><rect class="part-accent" x="25" y="195" width="3" height="150" rx="1"/><text class="part-tag" x="45" y="224">CAMERA</text><text class="part-name" x="45" y="257">Arducam Mini</text><text class="part-sub" x="45" y="281">Exact interface unverified</text></g><g class="component" data-part="power" tabindex="0" role="button" aria-label="Inspect Power distribution"><rect x="300" y="550" width="565" height="125" rx="8"/><rect class="part-accent" x="300" y="550" width="3" height="125" rx="1"/><text class="part-tag" x="320" y="579">EXTERNAL SUPPLIES</text><text class="part-name" x="320" y="612">Power distribution</text><text class="part-sub" x="320" y="636">Separate rails · common reference</text></g>
 <text class="schematic-caption" x="25" y="45">KESTREL / ELECTRICAL ARCHITECTURE</text><text class="part-sub" x="25" y="72">REV A · PROPOSED CONNECTIONS · NOT A VERIFIED AS-BUILT DRAWING</text></svg>